<svg width="30" height="26" viewBox="0 0 30 26" fill="none" xmlns="http://www.w3.org/2000/svg">
<path d="M11.3555 22.9453H17.7305V16.2773C17.7305 16.0039 17.6484 15.7852 17.4844 15.6211C17.3203 15.4492 17.0977 15.3633 16.8164 15.3633H12.2812C12.0078 15.3633 11.7852 15.4492 11.6133 15.6211C11.4414 15.7852 11.3555 16.0039 11.3555 16.2773V22.9453ZM3.89062 22.6875V13.9805L13.8047 5.66016C14.2969 5.24609 14.7891 5.24609 15.2812 5.66016L25.1836 13.9805V22.6875C25.1836 23.5469 24.9258 24.2227 24.4102 24.7148C23.8945 25.2148 23.1875 25.4648 22.2891 25.4648H6.79688C5.89844 25.4648 5.1875 25.2148 4.66406 24.7148C4.14844 24.2227 3.89062 23.5469 3.89062 22.6875ZM1.33594 13.2773C0.929688 13.2773 0.605469 13.1562 0.363281 12.9141C0.121094 12.6641 0 12.3633 0 12.0117C0 11.6055 0.175781 11.2578 0.527344 10.9688L12.7383 0.714844C13.293 0.238281 13.8945 0 14.543 0C15.1992 0 15.8047 0.238281 16.3594 0.714844L28.5703 10.9688C28.9219 11.2578 29.0977 11.6055 29.0977 12.0117C29.0977 12.3633 28.9766 12.6641 28.7344 12.9141C28.5 13.1562 28.1719 13.2773 27.75 13.2773C27.5547 13.2773 27.3672 13.2344 27.1875 13.1484C27.0078 13.0547 26.8398 12.9414 26.6836 12.8086L15.1055 3.10547C14.9336 2.94922 14.7461 2.87109 14.543 2.87109C14.3477 2.87109 14.1641 2.94922 13.9922 3.10547L2.41406 12.8086C2.25781 12.9414 2.08984 13.0547 1.91016 13.1484C1.73047 13.2344 1.53906 13.2773 1.33594 13.2773ZM21.8438 6.04688V3.39844C21.8438 3.125 21.9258 2.91016 22.0898 2.75391C22.2539 2.58984 22.4648 2.50781 22.7227 2.50781H24.5508C24.8242 2.50781 25.0391 2.58984 25.1953 2.75391C25.3516 2.91016 25.4297 3.125 25.4297 3.39844V9.05859L21.8438 6.04688Z" fill="#B0B0B0"/>
</svg>
