<svg width="20" height="22" viewBox="0 0 20 22" fill="none" xmlns="http://www.w3.org/2000/svg">
<path d="M2.17969 21.2695C1.5 21.2695 0.964844 21.1133 0.574219 20.8008C0.191406 20.4961 0 20.0742 0 19.5352C0 18.7852 0.230469 17.9961 0.691406 17.168C1.15234 16.3398 1.81641 15.5664 2.68359 14.8477C3.55078 14.1211 4.59375 13.5312 5.8125 13.0781C7.03906 12.625 8.41016 12.3984 9.92578 12.3984C11.4492 12.3984 12.8203 12.625 14.0391 13.0781C15.2656 13.5312 16.3086 14.1211 17.168 14.8477C18.0352 15.5664 18.6992 16.3398 19.1602 17.168C19.6289 17.9961 19.8633 18.7852 19.8633 19.5352C19.8633 20.0742 19.668 20.4961 19.2773 20.8008C18.8945 21.1133 18.3633 21.2695 17.6836 21.2695H2.17969ZM9.9375 10.3359C9.07031 10.3359 8.27734 10.1055 7.55859 9.64453C6.83984 9.17578 6.26172 8.55078 5.82422 7.76953C5.39453 6.98047 5.17969 6.09766 5.17969 5.12109C5.17969 4.17578 5.39453 3.31641 5.82422 2.54297C6.26172 1.76172 6.83984 1.14453 7.55859 0.691406C8.28516 0.230469 9.07812 0 9.9375 0C10.7969 0 11.5859 0.226562 12.3047 0.679688C13.0234 1.13281 13.6016 1.74609 14.0391 2.51953C14.4766 3.28516 14.6953 4.14844 14.6953 5.10938C14.6953 6.08594 14.4766 6.96875 14.0391 7.75781C13.6094 8.54688 13.0312 9.17578 12.3047 9.64453C11.5859 10.1055 10.7969 10.3359 9.9375 10.3359Z" fill="#B0B0B0"/>
</svg>
